<?xml version="1.0" encoding="UTF-8" standalone="no"?>
<!DOCTYPE svg PUBLIC "-//W3C//DTD SVG 1.1//EN"
 "http://www.w3.org/Graphics/SVG/1.1/DTD/svg11.dtd">
<!-- Generated by graphviz version 2.44.1 (20200629.0846)
 -->
<!-- Title: dependencies Pages: 1 -->
<svg width="1224pt" height="284pt"
 viewBox="0.00 0.00 1224.00 284.00" xmlns="http://www.w3.org/2000/svg" xmlns:xlink="http://www.w3.org/1999/xlink">
<g id="graph0" class="graph" transform="scale(1 1) rotate(0) translate(4 280)">
<title>dependencies</title>
<polygon fill="white" stroke="transparent" points="-4,4 -4,-280 1220,-280 1220,4 -4,4"/>
<text text-anchor="start" x="587.01" y="-42.4" font-family="sans-serif" font-weight="bold" font-size="14.00">Legend</text>
<polygon fill="#ffffb3" stroke="transparent" points="374,-10 374,-30 394,-30 394,-10 374,-10"/>
<text text-anchor="start" x="397.63" y="-15.4" font-family="sans-serif" font-size="14.00"> &#160;Declarations</text>
<polygon fill="#8dd3c7" stroke="transparent" points="487,-10 487,-30 507,-30 507,-10 487,-10"/>
<text text-anchor="start" x="510.73" y="-15.4" font-family="sans-serif" font-size="14.00"> &#160;Module</text>
<polygon fill="#80b1d3" stroke="transparent" points="573,-10 573,-30 593,-30 593,-10 573,-10"/>
<text text-anchor="start" x="596.78" y="-15.4" font-family="sans-serif" font-size="14.00"> &#160;Bootstrap</text>
<polygon fill="#fdb462" stroke="transparent" points="670,-10 670,-30 690,-30 690,-10 670,-10"/>
<text text-anchor="start" x="693.67" y="-15.4" font-family="sans-serif" font-size="14.00"> &#160;Providers</text>
<polygon fill="#fb8072" stroke="transparent" points="766,-10 766,-30 786,-30 786,-10 766,-10"/>
<text text-anchor="start" x="789.73" y="-15.4" font-family="sans-serif" font-size="14.00"> &#160;Exports</text>
<g id="clust1" class="cluster">
<title>cluster_AppModule</title>
<polygon fill="none" stroke="black" stroke-dasharray="1,5" points="8,-70 8,-268 574,-268 574,-70 8,-70"/>
</g>
<g id="clust2" class="cluster">
<title>cluster_AppModule_declarations</title>
<polygon fill="none" stroke="black" points="168,-78 168,-130 566,-130 566,-78 168,-78"/>
</g>
<g id="clust6" class="cluster">
<title>cluster_AppModule_imports</title>
<polygon fill="none" stroke="black" points="16,-78 16,-130 160,-130 160,-78 16,-78"/>
</g>
<g id="clust8" class="cluster">
<title>cluster_AppModule_bootstrap</title>
<polygon fill="none" stroke="black" points="244,-208 244,-260 368,-260 368,-208 244,-208"/>
</g>
<g id="clust16" class="cluster">
<title>cluster_HomeModule</title>
<polygon fill="none" stroke="black" stroke-dasharray="1,5" points="582,-70 582,-195 892,-195 892,-70 582,-70"/>
</g>
<g id="clust17" class="cluster">
<title>cluster_HomeModule_declarations</title>
<polygon fill="none" stroke="black" points="752,-78 752,-130 884,-130 884,-78 752,-78"/>
</g>
<g id="clust19" class="cluster">
<title>cluster_HomeModule_imports</title>
<polygon fill="none" stroke="black" points="590,-78 590,-130 744,-130 744,-78 590,-78"/>
</g>
<g id="clust29" class="cluster">
<title>cluster_LoginModule</title>
<polygon fill="none" stroke="black" stroke-dasharray="1,5" points="900,-70 900,-195 1208,-195 1208,-70 900,-70"/>
</g>
<g id="clust30" class="cluster">
<title>cluster_LoginModule_declarations</title>
<polygon fill="none" stroke="black" points="1070,-78 1070,-130 1200,-130 1200,-78 1070,-78"/>
</g>
<g id="clust32" class="cluster">
<title>cluster_LoginModule_imports</title>
<polygon fill="none" stroke="black" points="908,-78 908,-130 1062,-130 1062,-78 908,-78"/>
</g>
<!-- AppComponent -->
<g id="node1" class="node">
<title>AppComponent</title>
<polygon fill="#ffffb3" stroke="black" points="557.94,-122 452.06,-122 452.06,-86 557.94,-86 557.94,-122"/>
<text text-anchor="middle" x="505" y="-99.8" font-family="Times,serif" font-size="14.00">AppComponent</text>
</g>
<!-- AppModule -->
<g id="node4" class="node">
<title>AppModule</title>
<polygon fill="#8dd3c7" stroke="black" points="347.66,-187 344.66,-191 323.66,-191 320.66,-187 264.34,-187 264.34,-151 347.66,-151 347.66,-187"/>
<text text-anchor="middle" x="306" y="-164.8" font-family="Times,serif" font-size="14.00">AppModule</text>
</g>
<!-- AppComponent&#45;&gt;AppModule -->
<g id="edge1" class="edge">
<title>AppComponent&#45;&gt;AppModule</title>
<path fill="none" stroke="black" d="M505,-122.11C505,-141.34 505,-169 505,-169 505,-169 357.72,-169 357.72,-169"/>
<polygon fill="black" stroke="black" points="357.72,-165.5 347.72,-169 357.72,-172.5 357.72,-165.5"/>
</g>
<!-- FooterComponent -->
<g id="node2" class="node">
<title>FooterComponent</title>
<polygon fill="#ffffb3" stroke="black" points="433.88,-122 316.12,-122 316.12,-86 433.88,-86 433.88,-122"/>
<text text-anchor="middle" x="375" y="-99.8" font-family="Times,serif" font-size="14.00">FooterComponent</text>
</g>
<!-- FooterComponent&#45;&gt;AppModule -->
<g id="edge2" class="edge">
<title>FooterComponent&#45;&gt;AppModule</title>
<path fill="none" stroke="black" d="M331.94,-122.11C331.94,-122.11 331.94,-140.99 331.94,-140.99"/>
<polygon fill="black" stroke="black" points="328.44,-140.99 331.94,-150.99 335.44,-140.99 328.44,-140.99"/>
</g>
<!-- HeaderComponent -->
<g id="node3" class="node">
<title>HeaderComponent</title>
<polygon fill="#ffffb3" stroke="black" points="297.74,-122 176.26,-122 176.26,-86 297.74,-86 297.74,-122"/>
<text text-anchor="middle" x="237" y="-99.8" font-family="Times,serif" font-size="14.00">HeaderComponent</text>
</g>
<!-- HeaderComponent&#45;&gt;AppModule -->
<g id="edge3" class="edge">
<title>HeaderComponent&#45;&gt;AppModule</title>
<path fill="none" stroke="black" d="M281.02,-122.11C281.02,-122.11 281.02,-140.99 281.02,-140.99"/>
<polygon fill="black" stroke="black" points="277.52,-140.99 281.02,-150.99 284.52,-140.99 277.52,-140.99"/>
</g>
<!-- AppComponent  -->
<g id="node6" class="node">
<title>AppComponent </title>
<polygon fill="#80b1d3" stroke="black" points="360.44,-252 251.56,-252 251.56,-216 360.44,-216 360.44,-252"/>
<text text-anchor="middle" x="306" y="-229.8" font-family="Times,serif" font-size="14.00">AppComponent </text>
</g>
<!-- AppModule&#45;&gt;AppComponent  -->
<g id="edge5" class="edge">
<title>AppModule&#45;&gt;AppComponent </title>
<path fill="none" stroke="black" stroke-dasharray="1,5" d="M306,-187.11C306,-187.11 306,-205.99 306,-205.99"/>
<polygon fill="black" stroke="black" points="302.5,-205.99 306,-215.99 309.5,-205.99 302.5,-205.99"/>
</g>
<!-- AppRoutingModule -->
<g id="node5" class="node">
<title>AppRoutingModule</title>
<polygon fill="#8dd3c7" stroke="black" points="152.27,-122 149.27,-126 128.27,-126 125.27,-122 23.73,-122 23.73,-86 152.27,-86 152.27,-122"/>
<text text-anchor="middle" x="88" y="-99.8" font-family="Times,serif" font-size="14.00">AppRoutingModule</text>
</g>
<!-- AppRoutingModule&#45;&gt;AppModule -->
<g id="edge4" class="edge">
<title>AppRoutingModule&#45;&gt;AppModule</title>
<path fill="none" stroke="black" d="M88,-122.11C88,-141.34 88,-169 88,-169 88,-169 254.23,-169 254.23,-169"/>
<polygon fill="black" stroke="black" points="254.23,-172.5 264.23,-169 254.23,-165.5 254.23,-172.5"/>
</g>
<!-- HomeComponent -->
<g id="node7" class="node">
<title>HomeComponent</title>
<polygon fill="#ffffb3" stroke="black" points="875.55,-122 760.45,-122 760.45,-86 875.55,-86 875.55,-122"/>
<text text-anchor="middle" x="818" y="-99.8" font-family="Times,serif" font-size="14.00">HomeComponent</text>
</g>
<!-- HomeModule -->
<g id="node8" class="node">
<title>HomeModule</title>
<polygon fill="#8dd3c7" stroke="black" points="788.76,-187 785.76,-191 764.76,-191 761.76,-187 695.24,-187 695.24,-151 788.76,-151 788.76,-187"/>
<text text-anchor="middle" x="742" y="-164.8" font-family="Times,serif" font-size="14.00">HomeModule</text>
</g>
<!-- HomeComponent&#45;&gt;HomeModule -->
<g id="edge6" class="edge">
<title>HomeComponent&#45;&gt;HomeModule</title>
<path fill="none" stroke="black" d="M774.55,-122.11C774.55,-122.11 774.55,-140.99 774.55,-140.99"/>
<polygon fill="black" stroke="black" points="771.05,-140.99 774.55,-150.99 778.05,-140.99 771.05,-140.99"/>
</g>
<!-- HomeRoutingModule -->
<g id="node9" class="node">
<title>HomeRoutingModule</title>
<polygon fill="#8dd3c7" stroke="black" points="736.38,-122 733.38,-126 712.38,-126 709.38,-122 597.62,-122 597.62,-86 736.38,-86 736.38,-122"/>
<text text-anchor="middle" x="667" y="-99.8" font-family="Times,serif" font-size="14.00">HomeRoutingModule</text>
</g>
<!-- HomeRoutingModule&#45;&gt;HomeModule -->
<g id="edge7" class="edge">
<title>HomeRoutingModule&#45;&gt;HomeModule</title>
<path fill="none" stroke="black" d="M715.78,-122.11C715.78,-122.11 715.78,-140.99 715.78,-140.99"/>
<polygon fill="black" stroke="black" points="712.28,-140.99 715.78,-150.99 719.28,-140.99 712.28,-140.99"/>
</g>
<!-- LoginComponent -->
<g id="node10" class="node">
<title>LoginComponent</title>
<polygon fill="#ffffb3" stroke="black" points="1192.28,-122 1077.72,-122 1077.72,-86 1192.28,-86 1192.28,-122"/>
<text text-anchor="middle" x="1135" y="-99.8" font-family="Times,serif" font-size="14.00">LoginComponent</text>
</g>
<!-- LoginModule -->
<g id="node11" class="node">
<title>LoginModule</title>
<polygon fill="#8dd3c7" stroke="black" points="1106.49,-187 1103.49,-191 1082.49,-191 1079.49,-187 1013.51,-187 1013.51,-151 1106.49,-151 1106.49,-187"/>
<text text-anchor="middle" x="1060" y="-164.8" font-family="Times,serif" font-size="14.00">LoginModule</text>
</g>
<!-- LoginComponent&#45;&gt;LoginModule -->
<g id="edge8" class="edge">
<title>LoginComponent&#45;&gt;LoginModule</title>
<path fill="none" stroke="black" d="M1092.05,-122.11C1092.05,-122.11 1092.05,-140.99 1092.05,-140.99"/>
<polygon fill="black" stroke="black" points="1088.55,-140.99 1092.05,-150.99 1095.55,-140.99 1088.55,-140.99"/>
</g>
<!-- LoginRoutingModule -->
<g id="node12" class="node">
<title>LoginRoutingModule</title>
<polygon fill="#8dd3c7" stroke="black" points="1054.11,-122 1051.11,-126 1030.11,-126 1027.11,-122 915.89,-122 915.89,-86 1054.11,-86 1054.11,-122"/>
<text text-anchor="middle" x="985" y="-99.8" font-family="Times,serif" font-size="14.00">LoginRoutingModule</text>
</g>
<!-- LoginRoutingModule&#45;&gt;LoginModule -->
<g id="edge9" class="edge">
<title>LoginRoutingModule&#45;&gt;LoginModule</title>
<path fill="none" stroke="black" d="M1033.78,-122.11C1033.78,-122.11 1033.78,-140.99 1033.78,-140.99"/>
<polygon fill="black" stroke="black" points="1030.28,-140.99 1033.78,-150.99 1037.28,-140.99 1030.28,-140.99"/>
</g>
</g>
</svg>
